<svg xmlns="http://www.w3.org/2000/svg" width="185" height="58" stroke-linecap="round" stroke-linejoin="round" fill-rule="evenodd">
    <path d="M59.4586 3.7208l-.1633.9824c-1.2767 6.768-2.7328 12.4672-4.3648 17.1008s-3.776 9.12-6.4352 13.472c-8.7936 14.4384-18.4128 21.6577-28.8608 21.6577-2.9985 0-5.9361-.5632-8.8033-1.6897s-5.2384-2.6336-7.1104-4.5311C.9048 47.8648-.5 44.2841-.5 39.9736c0-4.2559 1.664-7.808 4.9888-10.6592 3.3312-2.8512 7.4784-4.2752 12.4449-4.2752 7.8975 0 16.4768 3.216 25.7376 9.6448l-3.12 2.08c-3.7505-2.7168-8.0097-4.9696-12.7713-6.7584-4.7647-1.7952-8.896-2.6912-12.4-2.6912-3.8624 0-7.0528 1.0432-9.5648 3.1264s-3.7695 4.7232-3.7695 7.9296c0 2.08.5087 4.144 1.5296 6.1984s2.4351 3.8208 4.2335 5.3057c1.5425 1.2736 3.6128 2.3135 6.2176 3.1199s5.2032 1.2097 7.7953 1.2097c8.5631 0 15.9232-4.192 22.0736-12.576 2.3424-3.2225 4.512-7.0785 6.5088-11.5681s3.3824-8.6368 4.1504-12.4448l1.264-6.3296.7616-3.8272c.0577-.24.1216-.608.1984-1.0944-.9376.1312-1.792.1952-2.56.1952l-2.6144-.0544c-.864 0-1.6864.112-2.4735.336-1.2417.3552-2.2369 1.0208-2.9856 2-.7489.9728-1.1233 2.0768-1.1233 3.312 0 1.184.304 2.2944.912 3.328.6112 1.0272 1.7023 2.2944 3.2767 3.7952 1.5393 1.4592 2.3105 2.7968 2.3105 4.0192 0 1.6288-.5888 3.2288-1.76 4.7936s-2.3552 2.352-3.5552 2.352c-.9569 0-1.7344-.3424-2.3359-1.0272s-.8993-1.5808-.8993-2.688c0-.1312.016-.3456.0543-.6464 1.2193 1.7248 2.4289 2.5856 3.6289 2.5856 1.7601 0 2.64-.9184 2.64-2.7552 0-1.1072-.9184-2.5024-2.7552-4.1888-2.2688-2.08-3.4048-4.4704-3.4048-7.1712 0-2.9632 1.0847-5.5232 3.2512-7.68s4.7328-3.2352 7.696-3.2352l2.5856.0544 2.3872.0608c.5824 0 1.0528-.0096 1.4049-.0288zM77.7849 18.988c-1.312 2.5152-2.9087 6.0512-4.784 10.6048-1.8752 4.56-2.8288 7.2128-2.8672 7.9616-.0192.5792.2976.8704.9568.8704.5056 0 1.248-.1855 2.224-.56l.3648.7584c-1.3695.7104-3.6288 1.6672-6.7776 2.8672l-.7616.2848c.4864-3.056 1.424-6.32 2.816-9.792-2.4223 3.0592-4.7136 5.456-6.88 7.1904s-3.9488 2.6016-5.3568 2.6016c-1.2352 0-1.8528-.6496-1.8528-1.9455 0-1.5521 1.1488-4.7489 3.4528-9.5905l2.2496-4.7232c.6976-1.4624 1.0624-2.512 1.1008-3.152.0352-.6144-.2816-.9248-.9536-.9248-.3008 0-.8256.112-1.5776.336l-.2239-.8448.4511-.1408c2.6208-.768 4.8064-1.5264 6.5504-2.2752 0 1.5008-.8352 3.9648-2.5023 7.3952l-2.448 5.0048c-1.8753 3.8432-2.8097 6.1984-2.8097 7.0592 0 .8096.3553 1.2096 1.0656 1.2096 1.8176 0 4.2272-1.8976 7.2288-5.6928s5.3888-7.984 7.1712-12.56l.368-.9024c1.088-.1088 2.352-.4544 3.7952-1.04zM92.2393 3.5256c0 2.2848-1.5168 6.8672-4.5536 13.7472-5.2704 11.984-7.952 18.9408-8.0448 20.8704-.0384.8448.2976 1.248 1.008 1.2096.544-.0192 1.5104-.5696 2.9024-1.6575l.3329-.2561.5343.736c-3.0176 2.6433-5.232 3.9648-6.6336 3.9648-1.1264 0-1.6896-.7872-1.6896-2.3648 0-1.216.3872-2.9216 1.1648-5.1168s2.64-6.8192 5.584-13.8688l2.672-6.4096c1.6128-3.8432 2.4192-6.0864 2.4192-6.7264 0-.5024-.2912-.7552-.8704-.7552-.208 0-.704.1248-1.4912.3648-.0928.0384-.2336.0864-.4224.1408l-.2815-.816.4191-.1696c3.248-1.2352 5.5649-2.2016 6.9504-2.8928zm4.2144 14.624v.304c0 1.7632-1.1616 5.2544-3.4848 10.4672l-2.08 4.7232c-1.1072 2.5312-1.68 4.0768-1.7184 4.64-.0192.5793.3008.8545.9601.816.3711-.016.992-.2143 1.8559-.5919l.3648.8159c-2.944 1.408-5.2992 2.4096-7.0624 3.0112.0928-1.7631.3776-3.392.8576-4.88s1.5137-3.9616 3.1072-7.4112c2.0288-4.4256 3.0592-7.0144 3.0976-7.7632.0352-.5824-.208-.8704-.7328-.8704-.2432 0-.56.064-.9536.1952l-1.1839.4224c-.0737.0192-.2529.0832-.5345.1952l-.2816-.8992.5888-.1952c2.0832-.768 4.2049-1.632 6.3617-2.5888l.8383-.3904zm1.6352-7.2c.8609 0 1.2928.4288 1.2928 1.2896 0 .4896-.1952.9312-.576 1.3248s-.8192.592-1.312.592c-.8799 0-1.3183-.432-1.3183-1.296 0-.4864.1919-.928.5759-1.3216s.832-.5888 1.3376-.5888zm12.8257 18.784c.2623.528.3967.9952.3967 1.4048 0 1.8016-1.2479 3.872-3.7407 6.2176-3.6416 3.4336-6.7361 5.1489-9.2865 5.1489-2.1919 0-3.2895-1.2481-3.2895-3.7409 0-2.8128.8575-5.7663 2.576-8.8608s3.9135-5.6416 6.5952-7.648c3.2608-2.4384 6.1695-3.6544 8.7199-3.6544 1.4784 0 2.2209.5408 2.2209 1.6288 0 .7136-.3584 1.5712-1.0721 2.576-.7103.9984-1.5999 1.904-2.6687 2.7104-.9953.7328-2.2561 1.408-3.7857 2.0288s-2.7039.9248-3.5263.9248c-.8833 0-1.4912-.4864-1.8272-1.4656.784.1152 1.4143.1696 1.8847.1696 1.872 0 3.6001-.5376 5.184-1.6128 1.5873-1.0816 2.3808-2.2496 2.3808-3.5072 0-.8992-.5823-1.3504-1.7471-1.3504-2.0801 0-4.2081 1.2768-6.384 3.8272-1.536 1.7984-2.8032 3.8976-3.7952 6.2976s-1.4881 4.5408-1.4881 6.416c0 1.9296.8032 2.896 2.4193 2.896 1.7599 0 3.5904-.9696 5.4944-2.912s3.4816-4.4352 4.7392-7.4944zm47.7216-10.4576l-11.4496 16.9536c2.9248-2.0416 5.6896-3.0656 8.2976-3.0656 2.3616 0 5.5488.8256 9.5616 2.4768l5.344 2.224c1.5553.6368 2.6176.9537 3.1808.9537 1.0304 0 2.2561-1.0401 3.68-3.1201l.8737.5312-.3105.48-1.8527 2.6432-1.8017 2.8128c-.0384.0737-.1728.2624-.3935.5633-1.7633-.4321-3.9776-1.2576-6.64-2.4737-3.6929-1.6704-6.5633-2.8128-8.6048-3.4304s-4.0129-.9312-5.9073-.9312c-2.0064 0-3.712.4512-5.12 1.3504s-2.8128 2.448-4.2176 4.64l-.8416-.5887 5.792-8.7457c-2.304-2.8896-3.456-6.1248-3.456-9.7056 0-3.0208.9344-5.6544 2.8097-7.904s4.0703-3.376 6.5791-3.376c2.1408 0 4.0896 1.0592 5.8496 3.1808l.1728-.2816.8448-1.4624c.6912-1.1648 1.0401-2.128 1.0401-2.896 0-.336-.1249-.6752-.3681-1.0144l.5632-.0256 1.5168-.0608c.2433 0 .7968-.0544 1.6609-.1632l.3967-.0608c-.4351.5632-1.2512 1.7728-2.4512 3.6288-.5792.8992-1.2352 1.8656-1.9648 2.896l-.4511.6496c.1663.224.2623.3552.2815.3936l1.6289 2.2752c2.7359 3.7696 5.8687 5.6576 9.3952 5.6576 2.2144 0 4.2047-1.0976 5.9744-3.2928s2.6623-4.6656 2.6623-7.424c0-4.368-3.0847-6.5536-9.2576-6.5536-2.6784 0-7.6288.2816-14.848.8448l-8.1568.6432c-1.8176.1504-3.712.2272-5.6799.2272-3.5617 0-5.9905-.4416-7.2832-1.3216L137.8491-.5l.9856.256-.0833.4736c-.2464 1.0912-.3647 1.888-.3647 2.3936 0 .9184.3999 1.5584 1.2031 1.9264s2.224.5504 4.2496.5504c3.0944 0 7.6513-.2464 13.6704-.736 6.7873-.5408 11.5296-.816 14.2304-.816 7.9489 0 11.9265 2.7104 11.9265 8.1312 0 3.2448-1.1745 6.32-3.5169 9.2256-2.7775 3.4304-6.272 5.1456-10.4896 5.1456-2.1184 0-3.9488-.4512-5.4848-1.3504s-3.2352-2.512-5.0912-4.8352l-.448-.5888zm-.8767-1.1264c-1.0304-1.4272-1.9777-2.448-2.8385-3.0656s-1.7727-.928-2.7264-.928c-1.632 0-2.9888.6208-4.0704 1.8688-1.0752 1.248-1.6128 2.8256-1.6128 4.7392 0 2.624 1.2832 5.4656 3.8528 8.5216l7.3953-11.136zm24.24 20.8384c.864 0 1.296.432 1.296 1.2928 0 .4896-.1952.9312-.5793 1.3249s-.8192.5888-1.3056.5888c-.88 0-1.3215-.432-1.3215-1.2961 0-.5055.192-.9503.5759-1.3344s.8288-.576 1.3345-.576z" fill-rule="nonzero"/>
    <path d="M42.5 49.5h140.2" class='main-nav-item-underline' />
</svg>